<svg width="22" height="20" viewBox="0 0 22 20" fill="none" xmlns="http://www.w3.org/2000/svg"><path d="M11.55 12.537v2.5H9.172v-2.5a1.193 1.193 0 0 1 1.19-1.179 1.172 1.172 0 0 1 .828.358 1.148 1.148 0 0 1 .36.821Z" fill="#C2E3F7"/><path d="m13.969 8.93-.036.107v6.036H11.55v-2.5a1.152 1.152 0 0 0-.357-.822 1.17 1.17 0 0 0-.828-.357 1.193 1.193 0 0 0-1.19 1.179v2.5H6.793V9.037L6.72 8.93l3.611-1.893L13.97 8.93Zm6.997 7.286v.072a1.379 1.379 0 0 0-1.368-1.322 1.429 1.429 0 0 0-1.336 1.393V2.572a1.39 1.39 0 0 1 .397-1 1.322 1.322 0 0 1 .939-.393 1.4 1.4 0 0 1 1.368 1.428v13.61Z" fill="#C2E3F7"/><path d="M2.932 18.645H1.146V2.572h12.623c.4.428.832.821 1.336 1.357l1.371-1.357h1.804v13.823a1.353 1.353 0 1 1 2.704-.072c-.036 1.286-.936 2.322-2.236 2.322H2.932ZM6.76 8.93l.071.107v6.036h7.108V9.037l.072-.107-3.608-1.893L6.761 8.93Z" fill="#fff"/><path d="M5.31 10.144a.421.421 0 0 1-.396-.25.457.457 0 0 1 .182-.607l1.429-.75 3.607-1.893a.46.46 0 0 1 .611.178.454.454 0 0 1-.178.607L6.957 9.322l-1.479.786a.278.278 0 0 1-.168.036Z" fill="#0B7BE2"/><path d="M15.447 10.144a.453.453 0 0 1-.214-.036l-1.482-.785-3.604-1.894a.457.457 0 0 1-.182-.607.465.465 0 0 1 .614-.178l3.608 1.893 1.428.75a.457.457 0 0 1 .179.607.357.357 0 0 1-.347.25Zm5.519 6.644a.432.432 0 0 1-.432-.393v-.107a.447.447 0 0 1 .468-.429.439.439 0 0 1 .436.429v.107c0 .178-.218.357-.472.393ZM2.931 19.074a.475.475 0 0 1-.471-.465v-3.572a.471.471 0 0 1 .94 0v3.572a.475.475 0 0 1-.469.465Z" fill="#0B7BE2"/><path d="M20.966 16.752a.475.475 0 0 1-.468-.464V2.608a.929.929 0 0 0-.9-.965 1.04 1.04 0 0 0-.65.25.878.878 0 0 0-.254.679.468.468 0 0 1-.935 0 1.69 1.69 0 0 1 .539-1.286c.337-.335.79-.527 1.264-.536a1.815 1.815 0 0 1 1.786 1.857v13.716c.09.215-.128.43-.382.43Z" fill="#0B7BE2"/><path d="M18.73 19.074H1.128a.475.475 0 0 1-.472-.465V2.537a.475.475 0 0 1 .472-.464H13.75a.389.389 0 0 1 .325.142l.686.68.357.356.357-.357.65-.643a.543.543 0 0 1 .325-.143h1.804a.475.475 0 0 1 .468.465v12.251c.268-.173.584-.26.904-.25a1.84 1.84 0 0 1 1.786 1.715v.035a2.73 2.73 0 0 1-2.683 2.75ZM1.585 18.18H18.73a1.813 1.813 0 0 0 1.804-1.858.936.936 0 0 0-.9-.893 1.004 1.004 0 0 0-.904.965.436.436 0 0 1-.432.428.435.435 0 0 1-.432-.428V3h-1.154l-.543.536-.686.679a.532.532 0 0 1-.325.143.4.4 0 0 1-.325-.143l-.682-.679L13.608 3H1.596l-.011 15.18Z" fill="#0B7BE2"/><path d="M9.172 15.502H6.789a.475.475 0 0 1-.468-.465v-6a.472.472 0 0 1 .94 0v5.572h1.91a.475.475 0 0 1 .469.464.468.468 0 0 1-.468.429Zm4.761 0H11.55a.464.464 0 0 1 0-.929h1.915V9.037a.468.468 0 0 1 .936 0v6.036a.496.496 0 0 1-.468.429Z" fill="#0B7BE2"/><path d="M11.55 15.502H9.172a.475.475 0 0 1-.468-.464v-2.5a1.607 1.607 0 0 1 1.621-1.608c.429.008.84.173 1.154.464a1.554 1.554 0 0 1 .468 1.143v2.5a.379.379 0 0 1-.396.465Zm-1.91-.893h1.478v-2.072a.649.649 0 0 0-.214-.5.919.919 0 0 0-.507-.214.714.714 0 0 0-.715.714v2.072H9.64Z" fill="#0B7BE2"/></svg>