<svg width="21" height="19" viewBox="0 0 21 19" fill="none" xmlns="http://www.w3.org/2000/svg"><path d="M12.2 7.918v2.13h-2.03v-2.13a.994.994 0 0 1 1.69-.676.907.907 0 0 1 .339.676Z" fill="#C2E3F7"/><path d="m14.212 4.875-.034.102v5.071H12.2v-2.13a.977.977 0 0 0-.308-.71.994.994 0 0 0-1.69.676v2.13h-2v-5.07l-.067-.068 3.043-1.59 3.033 1.59Z" fill="#C2E3F7"/><path d="m14.212 4.875-3.043-1.589-3.044 1.59.034.1v5.073h5.975V4.977l.078-.102Zm6.012-2.84v10.008H1.099V2.035a.88.88 0 0 1 .89-.88h17.379a.893.893 0 0 1 .856.88Z" fill="#fff"/><path d="M20.224 12.043v1.962a.879.879 0 0 1-.89.879H1.954a.9.9 0 0 1-.889-.88v-1.96h19.159Zm-9.356 1.251a.447.447 0 1 0-.894-.013.447.447 0 0 0 .894.013Z" fill="#C2E3F7"/><path d="M10.421 12.855a.44.44 0 1 1-.443.44.428.428 0 0 1 .443-.44Zm3.108 6.052a.443.443 0 0 1-.41-.27l-1.298-3.618a.443.443 0 0 1 .24-.541.446.446 0 0 1 .548.236l1.332 3.618a.44.44 0 0 1-.24.541.312.312 0 0 1-.172.034Zm-6.212 0a.203.203 0 0 1-.135-.034.409.409 0 0 1-.24-.54l1.332-3.618a.418.418 0 0 1 .548-.237.409.409 0 0 1 .237.54l-1.33 3.619a.45.45 0 0 1-.412.27Z" fill="#0B7BE2"/><path d="M15.75 18.907H5.163a.44.44 0 1 1 0-.879H15.75a.45.45 0 0 1 .443.44.473.473 0 0 1-.443.44ZM7.994 12.45H1.099a.44.44 0 0 1 0-.88h6.932a.45.45 0 0 1 .446.44.483.483 0 0 1-.483.44Z" fill="#0B7BE2"/><path d="M20.224 12.45H7.994a.44.44 0 0 1 0-.88H20.22a.44.44 0 0 1 0 .88h.004Z" fill="#0B7BE2"/><path d="M19.334 15.29H1.954a1.293 1.293 0 0 1-1.298-1.285V2.034A1.292 1.292 0 0 1 1.955.75h17.38a1.291 1.291 0 0 1 1.298 1.285v11.97a1.29 1.29 0 0 1-1.299 1.284ZM1.954 1.594a.45.45 0 0 0-.446.44v11.97a.45.45 0 0 0 .447.439h17.38a.45.45 0 0 0 .446-.44V2.034a.45.45 0 0 0-.447-.439H1.954Z" fill="#0B7BE2"/><path d="M4.754 3.286H2.705a.44.44 0 0 1 0-.88h2.05a.45.45 0 0 1 .442.44.473.473 0 0 1-.443.44Zm0 1.691H2.705a.44.44 0 0 1 0-.88h2.05a.45.45 0 0 1 .442.44.473.473 0 0 1-.443.44Zm2.151.98a.399.399 0 0 1-.376-.236.433.433 0 0 1 .173-.575l4.267-2.266a.443.443 0 0 1 .582.17.433.433 0 0 1-.176.574L7.11 5.89a.494.494 0 0 1-.206.067Z" fill="#0B7BE2"/><path d="M15.432 5.957a.45.45 0 0 1-.206-.034l-4.257-2.265a.432.432 0 0 1-.172-.575.443.443 0 0 1 .578-.169l4.27 2.232a.433.433 0 0 1 .17.574.416.416 0 0 1-.383.237Zm-5.248 4.497h-1.98a.45.45 0 0 1-.444-.44v-5.07a.443.443 0 0 1 .886 0V9.61h1.538a.45.45 0 0 1 .444.44.423.423 0 0 1-.444.405Z" fill="#0B7BE2"/><path d="M14.178 10.454H12.2a.44.44 0 1 1 0-.879h1.569V4.976a.446.446 0 0 1 .889 0v5.072a.544.544 0 0 1-.48.406Z" fill="#0B7BE2"/><path d="M12.2 10.454h-2.03a.45.45 0 0 1-.446-.44V7.919a1.437 1.437 0 0 1 1.437-1.42 1.312 1.312 0 0 1 .987.406 1.352 1.352 0 0 1 .413.98v2.13a.396.396 0 0 1-.362.44Zm-1.572-.845h1.126v-1.69a.625.625 0 0 0-.17-.407.581.581 0 0 0-.99.406v1.69h.034Zm7.07 1.285h-.856a.439.439 0 1 1 0-.88h.443V3.253h-.443a.44.44 0 1 1 0-.88h.856a.45.45 0 0 1 .44.44v7.608a.46.46 0 0 1-.44.474Z" fill="#0B7BE2"/></svg>