<svg width="26" height="21" viewBox="0 0 26 21" fill="none" xmlns="http://www.w3.org/2000/svg"><path d="M12.66 13.501H6.445v3.078h6.217v-3.078Z" fill="#fff"/><path d="M21.57 15.471v4.145h-3.439v-4.145a1.744 1.744 0 0 1 1.74-1.723c.449.006.879.182 1.203.492.307.338.483.775.496 1.231Z" fill="#C2E3F7"/><path d="M24.016 10.341v9.275H21.53v-4.145a1.687 1.687 0 0 0-1.699-1.682 1.744 1.744 0 0 0-1.74 1.723v4.145h-2.47v-9.316h8.396Z" fill="#C2E3F7"/><path d="M15.644 10.341v9.275H3.308v-9.275h12.336Zm-2.983 6.238v-3.078H6.444v3.078h6.217ZM19.79 1.19l-5.307 7.223H.891L6.193 1.19H19.79Z" fill="#C2E3F7"/><path d="M15.644 20.15H3.308a.546.546 0 0 1-.537-.534v-9.275a.546.546 0 0 1 .537-.533h12.353a.534.534 0 0 1 0 1.067H3.834v8.249h11.81a.546.546 0 0 1 .538.533.57.57 0 0 1-.538.493ZM14.483 8.905H.891a.505.505 0 0 1-.456-.287.488.488 0 0 1 .042-.534L5.77.861a.517.517 0 0 1 .41-.205h13.597a.509.509 0 0 1 .456.288.506.506 0 0 1-.041.533L14.885 8.7a.57.57 0 0 1-.402.205ZM1.884 7.879h12.312l4.555-6.197H6.439L1.884 7.88Z" fill="#0B7BE2"/><path d="M25.01 8.905a.517.517 0 0 1-.411-.205l-5.138-7.223a.48.48 0 0 1 .123-.698.488.488 0 0 1 .706.123l5.138 7.223a.473.473 0 0 1-.123.698.595.595 0 0 1-.296.082Zm-.994 11.245H21.53a.533.533 0 1 1 0-1.067h1.99v-8.208h-7.386v8.249h1.95a.533.533 0 1 1 0 1.067H15.62a.546.546 0 0 1-.538-.534v-9.316a.545.545 0 0 1 .538-.533h8.372a.546.546 0 0 1 .537.533v9.275a.485.485 0 0 1-.513.534Z" fill="#0B7BE2"/><path d="M21.57 20.15h-3.439a.546.546 0 0 1-.537-.534v-4.145a2.213 2.213 0 0 1 2.236-2.216c.59.007 1.156.242 1.576.657.417.412.655.973.661 1.56v4.144a.507.507 0 0 1-.497.534Zm-2.942-1.026h2.405V15.47a1.171 1.171 0 0 0-.374-.862 1.206 1.206 0 0 0-2.052.821l.041 3.694h-.02ZM5.77 6.976a.517.517 0 0 1-.373-.862l2.487-2.831a.53.53 0 0 1 .747-.041.513.513 0 0 1 .041.738L6.181 6.812a.866.866 0 0 1-.41.164Zm2.951 0a.468.468 0 0 1-.328-.123.513.513 0 0 1-.041-.739l2.462-2.831a.53.53 0 0 1 .747-.041.514.514 0 0 1 .041.738L9.115 6.812a.73.73 0 0 1-.394.164Zm2.988 0a.468.468 0 0 1-.333-.123.512.512 0 0 1-.04-.739l2.486-2.831a.526.526 0 0 1 .869.12.517.517 0 0 1-.08.577l-2.488 2.832a.899.899 0 0 1-.414.164Zm.951 10.096H6.445a.545.545 0 0 1-.538-.534V13.46a.546.546 0 0 1 .538-.533h6.217a.545.545 0 0 1 .537.533v3.078a.611.611 0 0 1-.537.534Zm-5.72-1.026h5.183v-2.052H6.94v2.052Z" fill="#0B7BE2"/></svg>