<svg width="20" height="20" viewBox="0 0 20 20" fill="none" xmlns="http://www.w3.org/2000/svg"><path d="M10.156 7.41v1.983h-1.8V7.41a.905.905 0 0 1 .916-.905c.232.007.454.093.63.244.151.189.24.42.254.661Z" fill="#C2E3F7"/><path d="m11.976 4.694-.034.07v4.63h-1.786V7.408a.985.985 0 0 0-.247-.626.846.846 0 0 0-.63-.244.902.902 0 0 0-.916.905v1.984h-1.8V4.764l-.034-.07 2.743-1.392 2.704 1.392Z" fill="#C2E3F7"/><path d="M17.744 1.144c1.476.07 1.392 2.297-.073 2.297h-2.214a2.286 2.286 0 0 1 2.214-2.297h.073Z" fill="#fff"/><path d="m6.53 4.694.034.07v4.63h5.378v-4.63l.034-.07-2.704-1.392-2.743 1.392Zm11.179-3.55h-.038a2.287 2.287 0 0 0-2.214 2.297v13.331A2.21 2.21 0 0 1 13.313 19h-.456a2.17 2.17 0 0 1-2.088-2.193v-.07H3.226V2.362a1.24 1.24 0 0 1 1.229-1.218h13.254Z" fill="#fff"/><path d="M12.857 18.965H3.226c-1.163 0-2.144-.766-2.144-2.228h9.7v.07a2.158 2.158 0 0 0 2.075 2.158Z" fill="#fff"/><path d="M17.67 3.859h-2.213a.453.453 0 0 1 0-.905h2.214a.654.654 0 0 0 .696-.696.666.666 0 0 0-.665-.731h-.073a.435.435 0 0 1 .035-.87h.108a1.514 1.514 0 0 1 1.476 1.6A1.533 1.533 0 0 1 17.67 3.86Z" fill="#0B7BE2"/><path d="M13.313 19.417h-.49a2.753 2.753 0 0 1-1.689-.73 2.576 2.576 0 0 1-.773-1.497H3.226a.463.463 0 0 1-.46-.453V2.327A1.643 1.643 0 0 1 4.42.691h13.289a.404.404 0 0 1 .421.418.456.456 0 0 1-.421.453h-.038a1.876 1.876 0 0 0-1.793 1.844v13.331a2.528 2.528 0 0 1-.807 1.915 2.914 2.914 0 0 1-1.758.765c.035 0 .035-.034 0 0Zm-.421-.87h.42a1.806 1.806 0 0 0 1.741-1.81V3.407a2.57 2.57 0 0 1 .738-1.845H4.455a.776.776 0 0 0-.773.765v13.958h7.135a.463.463 0 0 1 .456.452v.07a1.664 1.664 0 0 0 1.619 1.74Z" fill="#0B7BE2"/><path d="M12.857 19.417H3.226a2.505 2.505 0 0 1-1.793-.696 2.74 2.74 0 0 1-.776-1.984.463.463 0 0 1 .45-.452h9.71a.463.463 0 0 1 .456.452v.035a1.709 1.709 0 0 0 1.654 1.74.404.404 0 0 1 .386.453.487.487 0 0 1-.456.452ZM1.573 17.155a1.57 1.57 0 0 0 1.653 1.357h7.769a2.436 2.436 0 0 1-.634-1.357H1.573Zm12.196-5.569H4.984a.453.453 0 0 1 0-.905h8.785a.463.463 0 0 1 .46.452.49.49 0 0 1-.46.453Zm0 1.74H9.975a.452.452 0 1 1 0-.905h3.76a.463.463 0 0 1 .459.453.46.46 0 0 1-.425.452ZM5.405 5.704a.38.38 0 0 1-.387-.244.442.442 0 0 1 .175-.592L9.06 2.92a.452.452 0 0 1 .598.174.446.446 0 0 1-.177.592L5.63 5.634a.494.494 0 0 1-.226.07Z" fill="#0B7BE2"/><path d="M13.104 5.704a.45.45 0 0 1-.212-.035l-3.867-1.95a.41.41 0 0 1-.174-.591.421.421 0 0 1 .609-.174l3.867 1.949a.415.415 0 0 1 .177.592.484.484 0 0 1-.4.209ZM8.356 9.846H6.564a.463.463 0 0 1-.456-.453v-4.63a.456.456 0 0 1 .912 0v4.212h1.37a.463.463 0 0 1 .46.453.564.564 0 0 1-.495.418Z" fill="#0B7BE2"/><path d="M11.942 9.846h-1.786a.453.453 0 1 1 0-.905h1.371V4.764a.46.46 0 0 1 .916 0v4.63a.522.522 0 0 1-.501.452Z" fill="#0B7BE2"/><path d="M10.156 9.846h-1.8a.463.463 0 0 1-.456-.453V7.41a1.33 1.33 0 0 1 1.337-1.323c.353 0 .693.137.947.383.248.25.386.588.386.94v1.984a.41.41 0 0 1-.414.453Zm-1.392-.87h.915V7.443a.38.38 0 0 0-.14-.313.536.536 0 0 0-.316-.14.463.463 0 0 0-.46.453v1.531Z" fill="#0B7BE2"/></svg>