<svg width="21" height="21" viewBox="0 0 21 21" fill="none" xmlns="http://www.w3.org/2000/svg"><path d="M19.919 15.36v.067a1.31 1.31 0 0 0-1.3-1.254 1.355 1.355 0 0 0-1.264 1.322V2.384a1.318 1.318 0 0 1 .376-.949 1.24 1.24 0 0 1 .887-.372 1.331 1.331 0 0 1 1.301 1.355v12.941Z" fill="#C2E3F7"/><path d="M7.943 6.178h-1.71v1.694h1.71V6.178Zm0 1.694h-1.71v1.694h1.71V7.872Zm0 1.694h-1.71v1.694h1.71V9.566Zm0 1.694h-1.71v1.694h1.71V11.26Zm0 1.694h-1.71v1.694h1.71v-1.694Zm-1.71 0H4.522v1.694h1.71v-1.694Zm0-1.694H4.522v1.694h1.71V11.26Z" fill="#fff"/><path d="M6.233 9.566H4.522v1.694h1.71V9.566Zm0-1.694H4.522v1.694h1.71V7.872Zm0-1.694H4.522v1.694h1.71V6.178Zm7.697 0H7.943v1.694h5.987V6.178Zm0 1.694H7.943v1.694h5.987V7.872Zm0 1.694H7.943v1.694h5.987V9.566Z" fill="#fff"/><path d="M13.93 11.26H7.943v1.694h5.987V11.26Zm0 1.694H7.943v1.694h5.987v-1.694Z" fill="#fff"/><path d="M18.618 14.173a1.332 1.332 0 0 1 1.301 1.254c-.034 1.22-.89 2.202-2.12 2.202H1.1V2.384h11.976c.376.407.786.78 1.267 1.287l1.3-1.287h1.695v13.144a1.355 1.355 0 0 1 1.28-1.355Zm-4.685-7.995H4.522v8.47h9.41v-8.47Z" fill="#fff"/><path d="M19.92 15.867a.407.407 0 0 1-.41-.372v-.102a.42.42 0 0 1 .443-.407.413.413 0 0 1 .41.407v.068a.444.444 0 0 1-.444.406Z" fill="#0B7BE2"/><path d="M19.919 15.833a.45.45 0 0 1-.444-.44V2.418a.88.88 0 0 0-.857-.915 1.016 1.016 0 0 0-.616.237.844.844 0 0 0-.238.644.447.447 0 0 1-.89 0 1.607 1.607 0 0 1 .514-1.22 1.748 1.748 0 0 1 1.196-.508 1.72 1.72 0 0 1 1.694 1.762v13.009c.085.237-.112.406-.359.406Z" fill="#0B7BE2"/><path d="M17.795 18.035H1.1a.451.451 0 0 1-.444-.44V2.35a.45.45 0 0 1 .444-.44h11.976a.373.373 0 0 1 .308.135l.65.644.34.339.338-.34.617-.609a.505.505 0 0 1 .308-.135h1.694a.45.45 0 0 1 .444.44v11.62c.253-.165.551-.247.853-.237a1.741 1.741 0 0 1 1.694 1.626v.034a2.585 2.585 0 0 1-2.527 2.608ZM1.534 17.19h16.26a1.721 1.721 0 0 0 1.695-1.762.888.888 0 0 0-.857-.847.952.952 0 0 0-.854.915.414.414 0 0 1-.41.406.417.417 0 0 1-.413-.406V2.79H15.86l-.512.508-.65.643a.515.515 0 0 1-.309.136.373.373 0 0 1-.308-.136l-.65-.643-.512-.508H1.534v14.398Z" fill="#0B7BE2"/><path d="M15.23 6.619H3.258a.44.44 0 1 1 0-.881H15.23a.45.45 0 0 1 .448.44.505.505 0 0 1-.448.44Zm0 1.694H3.258a.44.44 0 1 1 0-.881H15.23a.45.45 0 0 1 .448.44.505.505 0 0 1-.448.44Zm0 1.693H3.258a.44.44 0 1 1 0-.88H15.23a.45.45 0 0 1 .448.44.505.505 0 0 1-.448.44Zm0 1.694H3.258a.44.44 0 1 1 0-.88H15.23a.45.45 0 0 1 .448.44.478.478 0 0 1-.448.44Zm0 1.694H3.258a.44.44 0 0 1 0-.88H15.23a.451.451 0 0 1 .448.44.478.478 0 0 1-.448.44Zm0 1.694H3.258a.44.44 0 1 1 0-.88H15.23a.45.45 0 0 1 .448.44.478.478 0 0 1-.448.44Z" fill="#0B7BE2"/><path d="M4.522 16.342a.45.45 0 0 1-.444-.44V4.924a.447.447 0 0 1 .89 0v11.01a.424.424 0 0 1-.446.407Zm1.71 0a.45.45 0 0 1-.443-.44V4.924a.447.447 0 0 1 .89 0v11.01a.424.424 0 0 1-.447.407Zm1.711 0a.45.45 0 0 1-.443-.44V4.924a.447.447 0 0 1 .89 0v11.01a.424.424 0 0 1-.447.407Zm5.99 0a.45.45 0 0 1-.447-.44V4.924a.447.447 0 0 1 .89 0v11.01a.425.425 0 0 1-.443.407Zm5.986 4.641H1.1a.451.451 0 0 1-.444-.44v-1.254a.447.447 0 0 1 .878 0v.847h17.955v-.847a.443.443 0 1 1 .887 0v1.287a.508.508 0 0 1-.457.407Z" fill="#0B7BE2"/></svg>