<svg width="17" height="22" viewBox="0 0 17 22" fill="none" xmlns="http://www.w3.org/2000/svg"><path d="M14.07 18.638v2.237H1.316V3.305h2.295v15.333h10.46Zm-.437-17.606 2.732 2.705h-2.731V1.032Z" fill="#C2E3F7"/><path d="M16.365 3.737v14.9H3.61V1.033h10.023v2.705h2.73Z" fill="#fff"/><path d="M14.07 21.344H1.316a.48.48 0 0 1-.472-.47V3.305a.48.48 0 0 1 .472-.469h2.295a.469.469 0 0 1 0 .938H1.807v16.705h11.845v-1.804a.473.473 0 0 1 .945 0v2.273a.552.552 0 0 1-.527.397Z" fill="#0B7BE2"/><path d="M16.365 19.07H3.61a.48.48 0 0 1-.473-.468V1.032a.48.48 0 0 1 .473-.47h10.023a.44.44 0 0 1 .324.145l2.735 2.706a.538.538 0 0 1 .144.324v14.9a.534.534 0 0 1-.472.434Zm-12.318-.9H15.91V3.918l-2.479-2.454h-9.38L4.047 18.17Z" fill="#0B7BE2"/><path d="M16.365 4.206h-2.731a.48.48 0 0 1-.477-.469V1.032a.477.477 0 0 1 .95 0v2.272H16.4a.48.48 0 0 1 .472.47.62.62 0 0 1-.508.432Zm-1.822 8.551H5.447a.469.469 0 1 1 0-.938h9.11a.48.48 0 0 1 .473.47.505.505 0 0 1-.487.468Zm.195-1.876H5.642a.469.469 0 1 1 0-.938h9.11a.48.48 0 0 1 .473.469.505.505 0 0 1-.487.469Zm0-1.804H5.642a.47.47 0 0 1 0-.938h9.11a.48.48 0 0 1 .473.469.505.505 0 0 1-.487.469Zm-.195 5.484H5.447a.469.469 0 1 1 0-.938h9.11a.48.48 0 0 1 .473.469.505.505 0 0 1-.487.469Zm0 1.804h-3.644a.47.47 0 0 1 0-.938h3.644a.48.48 0 0 1 .472.469.534.534 0 0 1-.472.469Z" fill="#0B7BE2"/></svg>