<svg width="25" height="18" viewBox="0 0 25 18" fill="none" xmlns="http://www.w3.org/2000/svg"><path d="M21.253 14.333h1.139c.302 0 .592-.117.806-.325.213-.208.333-.491.333-.786V8.978a1.006 1.006 0 0 0-.074-.39l-1.994-5.2a1.116 1.116 0 0 0-.417-.523 1.16 1.16 0 0 0-.648-.198h-4.842c-.302 0-.592.117-.806.325a1.097 1.097 0 0 0-.333.786v10.555" fill="#C2E3F7"/><path d="M21.253 14.333h1.139c.302 0 .592-.117.806-.325.213-.208.333-.491.333-.786V8.978a1.006 1.006 0 0 0-.074-.39l-1.994-5.2a1.116 1.116 0 0 0-.417-.523 1.16 1.16 0 0 0-.648-.198h-4.842c-.302 0-.592.117-.806.325a1.097 1.097 0 0 0-.333.786v10.555" stroke="#0B7BE2" stroke-linecap="round" stroke-linejoin="round"/><path d="m21.708 9.23-1.747-5.105h-4.086v5.104h5.833Z" fill="#C2E3F7" stroke="#0B7BE2" stroke-linecap="round" stroke-linejoin="round"/><path d="M7.49 14.333h8.385" fill="#C2E3F7"/><path d="M7.49 14.333h8.385m-7.656-2.187h5.469" stroke="#0B7BE2" stroke-linecap="round" stroke-linejoin="round"/><path d="M2.75 14.333H.562v-2.187h1.641" fill="#C2E3F7"/><path d="M2.75 14.333H.562v-2.187h1.641" stroke="#0B7BE2" stroke-linecap="round" stroke-linejoin="round"/><path d="M5.12 16.885a2.37 2.37 0 1 0 0-4.74 2.37 2.37 0 0 0 0 4.74Zm13.672 0c1.208 0 2.187-1.06 2.187-2.37 0-1.308-.98-2.37-2.187-2.37-1.208 0-2.188 1.062-2.188 2.37 0 1.31.98 2.37 2.188 2.37Zm-6.198-6.562H6.292L.562 6.977v-4.46L9.156.844l3.438 5.018v4.46Z" fill="#C2E3F7" stroke="#0B7BE2" stroke-linecap="round" stroke-linejoin="round"/><path d="M9.313.844 6.76 9.229m12.032-3.281v2.187" stroke="#0B7BE2" stroke-linecap="round" stroke-linejoin="round"/></svg>